<svg id="Camada_1" data-name="Camada 1" xmlns="http://www.w3.org/2000/svg" viewBox="0 0 1080.6 286.74"><defs><style>.cls-1{fill:#fff;}</style></defs><title>emrede_</title><path class="cls-1" d="M416.9,172H319.44V51.92H416.9v22H343.8V101.5h70.5v21.09H343.8V149.7h73.1Z"/><path class="cls-1" d="M495.21,172V126.71c0-11.15-6.33-21.27-18.79-21.27-12.28,0-19.53,10.12-19.53,21.27V172H434.2V87.26h21l1.67,10.29c4.84-8.58,15.44-11.66,24.18-11.66,11,0,21.95,4.11,27.16,15.78,8.18-12,18.78-15.44,30.69-15.44,26,0,38.87,14.75,38.87,40.14V172H555.1V126.37c0-11.15-5-20.59-17.3-20.59s-19.9,9.78-19.9,20.93V172Z"/><path class="cls-1" d="M718,172H688.83l-37.94-40.14H627.26V172H602.71V51.75c20.65,0,41.3.17,61.94.17,30.69.17,46.88,19,46.88,39.8,0,16.47-8.19,33.11-32.93,37.74l39.44,41ZM627.26,73v38.42h37.39c15.63,0,22.32-9.6,22.32-19.21S680.09,73,664.65,73Z"/><path class="cls-1" d="M745.74,137.18c1.49,10.46,11.35,18,27.35,18,8.37,0,19.34-2.92,24.55-7.89l14.51,13.2c-9.67,9.27-25.48,13.73-39.44,13.73-31.62,0-50.4-18-50.4-45.12,0-25.73,19-44.25,48.73-44.25,30.69,0,49.85,17.49,46.32,52.32Zm49.85-17.33c-1.48-11-10.78-16.47-23.8-16.47-12.28,0-22.33,5.49-25.67,16.47Z"/><path class="cls-1" d="M930.07,52.09V172h-21.2l-1.49-11.67c-7.07,10.12-18.42,13.55-29.58,13.55-27,0-47.24-16.46-47.24-44.25,0-29.16,19.9-44.26,46.69-44.26,9.67,0,24.73,4.8,30.13,13.55V52.09Zm-76.82,77.54c0,14.75,11.53,24.87,26,24.87,14.32,0,26.6-9.61,26.6-24.87,0-14.75-12.28-24.7-26.6-24.7C864.78,104.93,853.25,114.36,853.25,129.63Z"/><path class="cls-1" d="M971.17,137.18c1.49,10.46,11.35,18,27.34,18,8.37,0,19.35-2.92,24.56-7.89l14.5,13.2c-9.67,9.27-25.48,13.73-39.43,13.73-31.62,0-50.41-18-50.41-45.12,0-25.73,19-44.25,48.74-44.25,30.69,0,49.85,17.49,46.31,52.32ZM1021,119.85c-1.49-11-10.79-16.47-23.81-16.47-12.28,0-22.32,5.49-25.67,16.47Z"/><path class="cls-1" d="M320.51,217h16.73q5.68,0,8.63,2.48a8.64,8.64,0,0,1,2.95,7,10.49,10.49,0,0,1-.69,4,8.4,8.4,0,0,1-1.64,2.65,7.13,7.13,0,0,1-1.82,1.42,15.28,15.28,0,0,1-1.64.74v.1a6.61,6.61,0,0,1,1.79.54,5.16,5.16,0,0,1,1.64,1.25,6.55,6.55,0,0,1,1.28,2.25,10.45,10.45,0,0,1,.49,3.36,29.46,29.46,0,0,0,.49,5.72,7.44,7.44,0,0,0,1.42,3.51h-6.57a5.66,5.66,0,0,1-.76-2.19,20.69,20.69,0,0,1-.17-3c0-3.36-.49-5.75-1.45-7.16s-2.81-2.11-5.52-2.11h-9V252h-6.13Zm6.13,16H336.7q6,0,6-5.6a6.63,6.63,0,0,0-.46-2.67,3.74,3.74,0,0,0-1.33-1.64,5,5,0,0,0-1.91-.81,11.48,11.48,0,0,0-2.38-.22h-10Z"/><path class="cls-1" d="M358.63,240.8a8.15,8.15,0,0,0,1.76,5.35,6.15,6.15,0,0,0,5.05,2.16q4.71,0,6.18-4.22h5.3a10.2,10.2,0,0,1-4.05,6.35,12.34,12.34,0,0,1-7.43,2.28q-5.83,0-9.12-3.68a14,14,0,0,1-3.29-9.66,15.35,15.35,0,0,1,.86-5.13,13.28,13.28,0,0,1,2.48-4.29,11.63,11.63,0,0,1,3.9-2.92,11.86,11.86,0,0,1,5-1,11.61,11.61,0,0,1,4.93,1,11.9,11.9,0,0,1,3.85,2.84,12.48,12.48,0,0,1,2.45,4.17,14.76,14.76,0,0,1,.83,4.91,16.56,16.56,0,0,1-.1,1.86Zm13-3.68a7.53,7.53,0,0,0-1.89-4.75,5.71,5.71,0,0,0-4.48-2,6.28,6.28,0,0,0-4.71,1.92,6.88,6.88,0,0,0-2,4.8Z"/><path class="cls-1" d="M379,226.68h6.08l6.43,19.47h.1l6.18-19.47h5.78L394.53,252h-6.28Z"/><path class="cls-1" d="M407.14,217h5.59v5.3h-5.59Zm0,9.67h5.59V252h-5.59Z"/><path class="cls-1" d="M423,243.89a4.22,4.22,0,0,0,1.76,3.36,6.94,6.94,0,0,0,4,1.06,12.92,12.92,0,0,0,1.86-.13,6.92,6.92,0,0,0,1.82-.49,3.48,3.48,0,0,0,1.42-1,2.58,2.58,0,0,0,.54-1.69,2.68,2.68,0,0,0-1.67-2.4,23.32,23.32,0,0,0-4.86-1.42c-.91-.2-1.5-.33-1.76-.4a25.18,25.18,0,0,1-3.19-.88,9.78,9.78,0,0,1-2.5-1.32,6,6,0,0,1-1.79-2.14,6.9,6.9,0,0,1-.66-3.16,5.92,5.92,0,0,1,.95-3.39,7.24,7.24,0,0,1,2.53-2.28,11.74,11.74,0,0,1,3.41-1.22,18.43,18.43,0,0,1,3.7-.37,12.78,12.78,0,0,1,7,1.76,8.14,8.14,0,0,1,2.41,2.48,8.71,8.71,0,0,1,1.18,3.56h-5.84a3.54,3.54,0,0,0-1.72-2.63,7.08,7.08,0,0,0-3.43-.76,13,13,0,0,0-1.47.1,6.12,6.12,0,0,0-1.5.39,3.35,3.35,0,0,0-1.18.81,1.88,1.88,0,0,0-.46,1.3,2.36,2.36,0,0,0,1.57,2.28,24.58,24.58,0,0,0,4.9,1.4l1.77.4A30.69,30.69,0,0,1,435,238a10.37,10.37,0,0,1,2.52,1.3,5.71,5.71,0,0,1,1.82,2.08,6.65,6.65,0,0,1,.66,3.09,7,7,0,0,1-1,3.75,7.56,7.56,0,0,1-2.63,2.58,12.66,12.66,0,0,1-3.65,1.45,18,18,0,0,1-4.07.46,13.41,13.41,0,0,1-8.09-2.25,7.76,7.76,0,0,1-3.14-6.58Z"/><path class="cls-1" d="M441.72,226.68h4.21v-7.61h5.6v7.61h5.05v4.17h-5.05v13.53a5.38,5.38,0,0,0,.49,2.73c.32.5,1.06.76,2.2.76a10.54,10.54,0,0,0,2.36-.2V252l-1.23.14c-1,.1-1.85.15-2.4.15q-4.12,0-5.52-1.52c-.93-1-1.43-2.67-1.5-4.95v-15h-4.21Z"/><path class="cls-1" d="M481.84,246.39a2.87,2.87,0,0,0,.29,1.48,1.16,1.16,0,0,0,1,.44,8,8,0,0,0,1.38-.1v3.87a11.83,11.83,0,0,1-1.77.45,10.29,10.29,0,0,1-1.77.19,5.31,5.31,0,0,1-2.91-.71,3.32,3.32,0,0,1-1.4-2.38,10.13,10.13,0,0,1-4,2.31,15.45,15.45,0,0,1-4.8.78,9.75,9.75,0,0,1-6.18-1.94,6.5,6.5,0,0,1-2.5-5.46,7.84,7.84,0,0,1,.81-3.76,5.83,5.83,0,0,1,2.18-2.3,10.77,10.77,0,0,1,3-1.2,30.15,30.15,0,0,1,3.76-.64c.55-.1,1.37-.21,2.45-.34a14.49,14.49,0,0,0,3.95-.91,2.32,2.32,0,0,0,1.2-2.33,3.08,3.08,0,0,0-.46-1.72,3.12,3.12,0,0,0-1.23-1.05,6,6,0,0,0-1.67-.52,11.49,11.49,0,0,0-1.89-.15,6.84,6.84,0,0,0-3.92,1,3.91,3.91,0,0,0-1.67,3h-5.59a8.7,8.7,0,0,1,1.13-4,7.53,7.53,0,0,1,2.6-2.63,11.34,11.34,0,0,1,3.6-1.39,20.28,20.28,0,0,1,4.2-.42,16.45,16.45,0,0,1,3.72.42,10.6,10.6,0,0,1,3.26,1.3A6.61,6.61,0,0,1,481,230a6.36,6.36,0,0,1,.86,3.34Zm-5.59-7.06a6.13,6.13,0,0,1-1.94.79c-.74.16-1.66.31-2.77.44-.92.1-1.64.19-2.16.29a7.47,7.47,0,0,0-3.34,1.28,3.47,3.47,0,0,0-1.22,2.94,2.39,2.39,0,0,0,.49,1.52,3.43,3.43,0,0,0,1.27,1,7.68,7.68,0,0,0,1.7.54,9.48,9.48,0,0,0,1.69.17,8.74,8.74,0,0,0,2.08-.27,7.19,7.19,0,0,0,2.06-.86,4.73,4.73,0,0,0,1.55-1.5,3.92,3.92,0,0,0,.59-2.18Z"/><path class="cls-1" d="M525.39,252H520.1V248.6H520a6.72,6.72,0,0,1-3.16,3.09,10.64,10.64,0,0,1-4.69,1q-5.73,0-8.8-3.77a15,15,0,0,1-3.07-9.77,16.92,16.92,0,0,1,.91-5.83,11.83,11.83,0,0,1,2.45-4.15,9.92,9.92,0,0,1,3.51-2.43,11.05,11.05,0,0,1,4.12-.78,12.11,12.11,0,0,1,4.9,1,7.68,7.68,0,0,1,3.54,3h.09V217h5.59Zm-17.73-6.28a6,6,0,0,0,5.23,2.55,6.4,6.4,0,0,0,3.16-.76,6.7,6.7,0,0,0,2.23-2,8.93,8.93,0,0,0,1.3-2.87,12.89,12.89,0,0,0,.42-3.31,10.27,10.27,0,0,0-1.89-6.55A6.21,6.21,0,0,0,513,230.4a6.84,6.84,0,0,0-3.27.76,6.05,6.05,0,0,0-2.23,2.09,9.83,9.83,0,0,0-1.22,3,14.15,14.15,0,0,0-.4,3.41A10.43,10.43,0,0,0,507.66,245.76Z"/><path class="cls-1" d="M535.84,240.8a8.16,8.16,0,0,0,1.77,5.35,6.15,6.15,0,0,0,5,2.16q4.71,0,6.18-4.22h5.3a10.2,10.2,0,0,1-4,6.35,12.36,12.36,0,0,1-7.43,2.28q-5.83,0-9.12-3.68a14,14,0,0,1-3.29-9.66,15.35,15.35,0,0,1,.86-5.13,13.28,13.28,0,0,1,2.48-4.29,11.53,11.53,0,0,1,3.9-2.92,11.85,11.85,0,0,1,5-1,11.54,11.54,0,0,1,4.93,1,11.79,11.79,0,0,1,3.85,2.84,12.5,12.5,0,0,1,2.46,4.17,14.76,14.76,0,0,1,.83,4.91,16.56,16.56,0,0,1-.1,1.86Zm13-3.68a7.53,7.53,0,0,0-1.89-4.75,5.73,5.73,0,0,0-4.49-2,6.31,6.31,0,0,0-4.71,1.92,7,7,0,0,0-2,4.8Z"/><path class="cls-1" d="M573.17,217h25.21v5.3H579.3v9.17H597v5H579.3v10.25h19.43V252H573.17Z"/><path class="cls-1" d="M627.17,252h-5.29V248.6h-.1a6.7,6.7,0,0,1-3.17,3.09,10.56,10.56,0,0,1-4.68,1q-5.74,0-8.8-3.77a15,15,0,0,1-3.07-9.77,16.92,16.92,0,0,1,.91-5.83,11.83,11.83,0,0,1,2.45-4.15,9.92,9.92,0,0,1,3.51-2.43,11,11,0,0,1,4.12-.78,12.14,12.14,0,0,1,4.9,1,7.61,7.61,0,0,1,3.53,3h.1V217h5.59Zm-17.73-6.28a6,6,0,0,0,5.23,2.55,6.4,6.4,0,0,0,3.16-.76,6.7,6.7,0,0,0,2.23-2,8.93,8.93,0,0,0,1.3-2.87,12.89,12.89,0,0,0,.42-3.31,10.27,10.27,0,0,0-1.89-6.55,6.22,6.22,0,0,0-5.13-2.38,6.79,6.79,0,0,0-3.26.76,6.05,6.05,0,0,0-2.23,2.09,9.6,9.6,0,0,0-1.23,3,14.67,14.67,0,0,0-.39,3.41A10.43,10.43,0,0,0,609.44,245.76Z"/><path class="cls-1" d="M655.52,252H650V248.5h-.1a7.86,7.86,0,0,1-3,3,8.1,8.1,0,0,1-4.17,1.18q-4.9,0-7.18-2.47c-1.52-1.66-2.28-4.15-2.28-7.49V226.68h5.59v15.55c0,2.15.41,3.71,1.22,4.65a4.54,4.54,0,0,0,3.63,1.43q3.28,0,4.76-1.87a7.92,7.92,0,0,0,1.47-5.05V226.68h5.59Z"/><path class="cls-1" d="M678.53,235.16a5.39,5.39,0,0,0-1.89-3.51,6,6,0,0,0-3.9-1.25,7.83,7.83,0,0,0-2.43.4,5.74,5.74,0,0,0-2.23,1.39,7.29,7.29,0,0,0-1.67,2.85,14.32,14.32,0,0,0-.63,4.59,12.71,12.71,0,0,0,.39,3.18,9.2,9.2,0,0,0,1.2,2.77,5.79,5.79,0,0,0,5.13,2.73,5.57,5.57,0,0,0,4-1.55,7.13,7.13,0,0,0,2-4.24h5.59a12.19,12.19,0,0,1-3.78,7.58,11.45,11.45,0,0,1-7.84,2.62q-5.79,0-9-3.65a13.64,13.64,0,0,1-3.27-9.44,14.65,14.65,0,0,1,3.24-9.81q3.24-3.84,9.27-3.83a12.85,12.85,0,0,1,7.85,2.35,9,9,0,0,1,3.58,6.82Z"/><path class="cls-1" d="M709.92,246.39a2.87,2.87,0,0,0,.29,1.48,1.16,1.16,0,0,0,1,.44,8,8,0,0,0,1.38-.1v3.87a11.83,11.83,0,0,1-1.77.45,10.29,10.29,0,0,1-1.76.19,5.35,5.35,0,0,1-2.92-.71,3.35,3.35,0,0,1-1.4-2.38,10.16,10.16,0,0,1-4,2.31,15.56,15.56,0,0,1-4.81.78,9.75,9.75,0,0,1-6.18-1.94,6.5,6.5,0,0,1-2.5-5.46,7.84,7.84,0,0,1,.81-3.76,5.83,5.83,0,0,1,2.18-2.3,10.71,10.71,0,0,1,3-1.2,29.66,29.66,0,0,1,3.75-.64c.56-.1,1.37-.21,2.45-.34a14.49,14.49,0,0,0,4-.91,2.32,2.32,0,0,0,1.2-2.33,3,3,0,0,0-.46-1.72,3.05,3.05,0,0,0-1.23-1.05,5.93,5.93,0,0,0-1.67-.52,11.49,11.49,0,0,0-1.89-.15,6.84,6.84,0,0,0-3.92,1,3.91,3.91,0,0,0-1.67,3h-5.59a8.7,8.7,0,0,1,1.13-4,7.53,7.53,0,0,1,2.6-2.63,11.34,11.34,0,0,1,3.6-1.39,20.28,20.28,0,0,1,4.2-.42,16.45,16.45,0,0,1,3.72.42,10.76,10.76,0,0,1,3.27,1.3,6.66,6.66,0,0,1,2.3,2.3,6.36,6.36,0,0,1,.86,3.34Zm-5.59-7.06a6,6,0,0,1-1.94.79c-.73.16-1.66.31-2.77.44-.92.1-1.64.19-2.16.29a7.38,7.38,0,0,0-3.33,1.28,3.45,3.45,0,0,0-1.23,2.94,2.39,2.39,0,0,0,.49,1.52,3.39,3.39,0,0,0,1.28,1,7.43,7.43,0,0,0,1.69.54,9.48,9.48,0,0,0,1.69.17,8.74,8.74,0,0,0,2.08-.27,7.08,7.08,0,0,0,2.06-.86,4.73,4.73,0,0,0,1.55-1.5,3.92,3.92,0,0,0,.59-2.18Z"/><path class="cls-1" d="M738.66,242.52a12.48,12.48,0,0,1-3.45,7.28,10.58,10.58,0,0,1-7.14,2.82l-1.72,2.26v.1a5.49,5.49,0,0,1,1.62-.15,4.72,4.72,0,0,1,2.9,1,3.16,3.16,0,0,1,1.27,2.67,3.63,3.63,0,0,1-1.74,3.36,8,8,0,0,1-4.19,1.06,14.92,14.92,0,0,1-2.73-.27,7.75,7.75,0,0,1-2.33-.77l.89-2,.49.15a9.06,9.06,0,0,0,2.69.64,4.71,4.71,0,0,0,2.14-.44,1.62,1.62,0,0,0,.86-1.57,1.6,1.6,0,0,0-.69-1.38,2.68,2.68,0,0,0-1.57-.49,3.74,3.74,0,0,0-1.91.49l-1.08-.93,2.79-3.73a11,11,0,0,1-8.14-4,13.94,13.94,0,0,1-2.89-9,14.7,14.7,0,0,1,3.23-9.81q3.24-3.84,9.28-3.83a12.82,12.82,0,0,1,7.84,2.35,9,9,0,0,1,3.58,6.82h-5.59a5.39,5.39,0,0,0-1.89-3.51,6,6,0,0,0-3.9-1.25,7.82,7.82,0,0,0-2.42.4,5.6,5.6,0,0,0-2.23,1.39A7.17,7.17,0,0,0,721,235a14,14,0,0,0-.64,4.59,12.71,12.71,0,0,0,.39,3.18,9.2,9.2,0,0,0,1.2,2.77,5.83,5.83,0,0,0,5.13,2.73,5.61,5.61,0,0,0,4.05-1.55,7.12,7.12,0,0,0,2-4.24Z"/><path class="cls-1" d="M764.46,246.39a2.75,2.75,0,0,0,.3,1.48,1.15,1.15,0,0,0,1,.44,7.91,7.91,0,0,0,1.37-.1v3.87a11.67,11.67,0,0,1-1.76.45,10.29,10.29,0,0,1-1.77.19,5.37,5.37,0,0,1-2.92-.71,3.38,3.38,0,0,1-1.4-2.38,10.09,10.09,0,0,1-4,2.31,15.47,15.47,0,0,1-4.81.78,9.75,9.75,0,0,1-6.18-1.94,6.52,6.52,0,0,1-2.5-5.46,7.84,7.84,0,0,1,.81-3.76,5.9,5.9,0,0,1,2.18-2.3,10.83,10.83,0,0,1,3-1.2,30.3,30.3,0,0,1,3.75-.64c.56-.1,1.38-.21,2.46-.34a14.4,14.4,0,0,0,3.94-.91,2.32,2.32,0,0,0,1.21-2.33,2.89,2.89,0,0,0-1.7-2.77,5.86,5.86,0,0,0-1.66-.52,11.67,11.67,0,0,0-1.89-.15,6.85,6.85,0,0,0-3.93,1,3.9,3.9,0,0,0-1.66,3h-5.6a8.83,8.83,0,0,1,1.13-4,7.61,7.61,0,0,1,2.6-2.63,11.3,11.3,0,0,1,3.61-1.39,20.18,20.18,0,0,1,4.19-.42,16.47,16.47,0,0,1,3.73.42,10.7,10.7,0,0,1,3.26,1.3,6.78,6.78,0,0,1,2.31,2.3,6.36,6.36,0,0,1,.85,3.34ZM762.6,217a7.32,7.32,0,0,1-1.62,4,4.59,4.59,0,0,1-3.82,1.66,6.78,6.78,0,0,1-1.67-.24,12.84,12.84,0,0,1-2-.69,1.39,1.39,0,0,0-.35-.1,11.2,11.2,0,0,0-3-.78,1.93,1.93,0,0,0-1.45.64,2,2,0,0,0-.61,1.37h-2.79A8,8,0,0,1,747,219a4.17,4.17,0,0,1,3.41-1.69,10.11,10.11,0,0,1,4,.93c.29.1.51.18.64.24a7.37,7.37,0,0,0,2.4.69,2.19,2.19,0,0,0,1.6-.56,3.63,3.63,0,0,0,.85-1.6Zm-3.73,22.32a5.94,5.94,0,0,1-1.94.79c-.73.16-1.66.31-2.77.44-.91.1-1.63.19-2.16.29a7.47,7.47,0,0,0-3.33,1.28,3.45,3.45,0,0,0-1.23,2.94,2.45,2.45,0,0,0,.49,1.52,3.47,3.47,0,0,0,1.28,1,7.59,7.59,0,0,0,1.69.54,9.57,9.57,0,0,0,1.69.17,8.82,8.82,0,0,0,2.09-.27,7.31,7.31,0,0,0,2.06-.86,4.7,4.7,0,0,0,1.54-1.5,3.84,3.84,0,0,0,.59-2.18Z"/><path class="cls-1" d="M772.73,249a15.4,15.4,0,0,1,0-19.33q3.4-3.7,9.39-3.7t9.4,3.7a15.44,15.44,0,0,1,0,19.33q-3.42,3.71-9.4,3.7T772.73,249Zm12.58-1.47a6.61,6.61,0,0,0,2.26-2,9.19,9.19,0,0,0,1.32-2.87,12.07,12.07,0,0,0,.44-3.31,11.93,11.93,0,0,0-.44-3.29,9.57,9.57,0,0,0-1.32-2.86,6.23,6.23,0,0,0-2.26-2,7.25,7.25,0,0,0-6.38,0,6.29,6.29,0,0,0-2.25,2,9.85,9.85,0,0,0-1.33,2.86,12.32,12.32,0,0,0-.44,3.29,12.47,12.47,0,0,0,.44,3.31,9.44,9.44,0,0,0,1.33,2.87,6.81,6.81,0,0,0,8.63,2Z"/><path class="cls-1" d="M834.46,246.39a2.87,2.87,0,0,0,.29,1.48,1.16,1.16,0,0,0,1,.44,8,8,0,0,0,1.38-.1v3.87a11.83,11.83,0,0,1-1.77.45,10.29,10.29,0,0,1-1.77.19,5.31,5.31,0,0,1-2.91-.71,3.32,3.32,0,0,1-1.4-2.38,10.13,10.13,0,0,1-4,2.31,15.45,15.45,0,0,1-4.8.78,9.75,9.75,0,0,1-6.18-1.94,6.5,6.5,0,0,1-2.5-5.46,7.84,7.84,0,0,1,.81-3.76,5.83,5.83,0,0,1,2.18-2.3,10.77,10.77,0,0,1,3-1.2,30.15,30.15,0,0,1,3.76-.64c.55-.1,1.37-.21,2.45-.34a14.49,14.49,0,0,0,4-.91,2.32,2.32,0,0,0,1.2-2.33,2.9,2.9,0,0,0-1.69-2.77,6,6,0,0,0-1.67-.52,11.58,11.58,0,0,0-1.89-.15,6.84,6.84,0,0,0-3.92,1,3.91,3.91,0,0,0-1.67,3h-5.59a8.7,8.7,0,0,1,1.13-4,7.53,7.53,0,0,1,2.6-2.63,11.25,11.25,0,0,1,3.6-1.39,20.25,20.25,0,0,1,4.19-.42,16.47,16.47,0,0,1,3.73.42,10.6,10.6,0,0,1,3.26,1.3,6.61,6.61,0,0,1,2.31,2.3,6.36,6.36,0,0,1,.86,3.34Zm-5.59-7.06a6,6,0,0,1-1.94.79c-.74.16-1.66.31-2.77.44-.92.1-1.64.19-2.16.29a7.47,7.47,0,0,0-3.34,1.28,3.47,3.47,0,0,0-1.22,2.94,2.39,2.39,0,0,0,.49,1.52,3.36,3.36,0,0,0,1.27,1,7.68,7.68,0,0,0,1.7.54,9.39,9.39,0,0,0,1.69.17,8.74,8.74,0,0,0,2.08-.27,7.19,7.19,0,0,0,2.06-.86,4.73,4.73,0,0,0,1.55-1.5,3.92,3.92,0,0,0,.59-2.18Z"/><path class="cls-1" d="M854.91,217h14.52a16.32,16.32,0,0,1,6.87,1.35,13.07,13.07,0,0,1,4.85,3.73,15.43,15.43,0,0,1,2.82,5.57,26.35,26.35,0,0,1,0,13.73,15.43,15.43,0,0,1-2.82,5.57,13.18,13.18,0,0,1-4.85,3.73,16.32,16.32,0,0,1-6.87,1.35H854.91ZM861,247h6a15.6,15.6,0,0,0,5.79-.93,8.34,8.34,0,0,0,3.58-2.62,10.56,10.56,0,0,0,1.79-3.9,25.41,25.41,0,0,0,0-10.13,10.27,10.27,0,0,0-1.79-3.9,8.39,8.39,0,0,0-3.58-2.6,15.6,15.6,0,0,0-5.79-.93h-6Z"/><path class="cls-1" d="M889.69,217h5.59v5.3h-5.59Zm0,9.67h5.59V252h-5.59Z"/><path class="cls-1" d="M905.58,243.89a4.2,4.2,0,0,0,1.77,3.36,6.91,6.91,0,0,0,4,1.06,12.92,12.92,0,0,0,1.86-.13,6.92,6.92,0,0,0,1.82-.49,3.42,3.42,0,0,0,1.42-1A2.58,2.58,0,0,0,917,245a2.68,2.68,0,0,0-1.67-2.4,23,23,0,0,0-4.85-1.42c-.92-.2-1.51-.33-1.77-.4a25.18,25.18,0,0,1-3.19-.88,9.94,9.94,0,0,1-2.5-1.32,6,6,0,0,1-1.79-2.14,6.9,6.9,0,0,1-.66-3.16,6,6,0,0,1,1-3.39,7.24,7.24,0,0,1,2.53-2.28,11.84,11.84,0,0,1,3.41-1.22,18.5,18.5,0,0,1,3.7-.37,12.82,12.82,0,0,1,7,1.76,8.22,8.22,0,0,1,2.4,2.48,8.71,8.71,0,0,1,1.18,3.56h-5.84a3.54,3.54,0,0,0-1.72-2.63,7.08,7.08,0,0,0-3.43-.76,13,13,0,0,0-1.47.1,6.37,6.37,0,0,0-1.5.39,3.31,3.31,0,0,0-1.17.81,1.84,1.84,0,0,0-.47,1.3,2.36,2.36,0,0,0,1.57,2.28,24.79,24.79,0,0,0,4.9,1.4l1.77.4a30.69,30.69,0,0,1,3.19.93,10.19,10.19,0,0,1,2.52,1.3,5.71,5.71,0,0,1,1.82,2.08,6.65,6.65,0,0,1,.66,3.09,7,7,0,0,1-1,3.75,7.53,7.53,0,0,1-2.62,2.58,12.84,12.84,0,0,1-3.66,1.45,18,18,0,0,1-4.07.46,13.43,13.43,0,0,1-8.09-2.25,7.76,7.76,0,0,1-3.14-6.58Z"/><path class="cls-1" d="M924.27,226.68h4.22v-7.61h5.59v7.61h5v4.17h-5v13.53a5.38,5.38,0,0,0,.49,2.73c.33.5,1.06.76,2.21.76a10.44,10.44,0,0,0,2.35-.2V252l-1.23.14q-1.56.15-2.4.15c-2.75,0-4.58-.51-5.52-1.52s-1.43-2.67-1.49-4.95v-15h-4.22Z"/><path class="cls-1" d="M964.39,246.39a2.75,2.75,0,0,0,.3,1.48,1.13,1.13,0,0,0,1,.44,8,8,0,0,0,1.38-.1v3.87a11.83,11.83,0,0,1-1.77.45,10.29,10.29,0,0,1-1.76.19,5.35,5.35,0,0,1-2.92-.71,3.35,3.35,0,0,1-1.4-2.38,10.16,10.16,0,0,1-4,2.31,15.51,15.51,0,0,1-4.81.78,9.75,9.75,0,0,1-6.18-1.94,6.5,6.5,0,0,1-2.5-5.46,7.84,7.84,0,0,1,.81-3.76,5.83,5.83,0,0,1,2.18-2.3,10.83,10.83,0,0,1,3-1.2,29.66,29.66,0,0,1,3.75-.64c.56-.1,1.37-.21,2.45-.34a14.49,14.49,0,0,0,4-.91,2.32,2.32,0,0,0,1.2-2.33,2.86,2.86,0,0,0-1.69-2.77,5.93,5.93,0,0,0-1.67-.52,11.49,11.49,0,0,0-1.89-.15,6.84,6.84,0,0,0-3.92,1,3.91,3.91,0,0,0-1.67,3h-5.59a8.7,8.7,0,0,1,1.13-4,7.53,7.53,0,0,1,2.6-2.63,11.34,11.34,0,0,1,3.6-1.39,20.35,20.35,0,0,1,4.2-.42,16.45,16.45,0,0,1,3.72.42,10.76,10.76,0,0,1,3.27,1.3,6.66,6.66,0,0,1,2.3,2.3,6.36,6.36,0,0,1,.86,3.34Zm-14-23.2H945.9l5.25-7h5.44l5.3,7h-4.56l-3.49-4.41Zm8.39,16.14a6,6,0,0,1-1.94.79c-.73.16-1.66.31-2.77.44-.92.1-1.63.19-2.16.29a7.42,7.42,0,0,0-3.33,1.28,3.45,3.45,0,0,0-1.23,2.94,2.39,2.39,0,0,0,.49,1.52,3.39,3.39,0,0,0,1.28,1,7.43,7.43,0,0,0,1.69.54,9.48,9.48,0,0,0,1.69.17,8.88,8.88,0,0,0,2.09-.27,7.31,7.31,0,0,0,2.06-.86,4.8,4.8,0,0,0,1.54-1.5,3.92,3.92,0,0,0,.59-2.18Z"/><path class="cls-1" d="M970.42,226.68h5.3v3.72l.1.1a9.37,9.37,0,0,1,3.34-3.31,8.88,8.88,0,0,1,4.56-1.2,9.23,9.23,0,0,1,6.59,2.23,8.34,8.34,0,0,1,2.38,6.4V252H987.1V236.09a6.59,6.59,0,0,0-1.25-4.31,4.64,4.64,0,0,0-3.7-1.38,5.64,5.64,0,0,0-4.44,1.92,6.9,6.9,0,0,0-1.69,4.76v15h-5.6Z"/><path class="cls-1" d="M1015.7,235.16a5.39,5.39,0,0,0-1.89-3.51,6,6,0,0,0-3.9-1.25,7.83,7.83,0,0,0-2.43.4,5.74,5.74,0,0,0-2.23,1.39,7.29,7.29,0,0,0-1.67,2.85,14.3,14.3,0,0,0-.64,4.59,12.26,12.26,0,0,0,.4,3.18,9.2,9.2,0,0,0,1.2,2.77,5.79,5.79,0,0,0,5.12,2.73,5.58,5.58,0,0,0,4.05-1.55,7.13,7.13,0,0,0,2-4.24h5.59a12.19,12.19,0,0,1-3.78,7.58,11.46,11.46,0,0,1-7.85,2.62q-5.77,0-9-3.65a13.68,13.68,0,0,1-3.26-9.44,14.65,14.65,0,0,1,3.24-9.81q3.24-3.84,9.27-3.83a12.85,12.85,0,0,1,7.85,2.35,9,9,0,0,1,3.58,6.82Z"/><path class="cls-1" d="M1026,217h5.59v5.3H1026Zm0,9.67h5.59V252H1026Z"/><path class="cls-1" d="M1058.91,246.39a2.75,2.75,0,0,0,.3,1.48,1.13,1.13,0,0,0,1,.44,8,8,0,0,0,1.38-.1v3.87a11.83,11.83,0,0,1-1.77.45,10.29,10.29,0,0,1-1.76.19,5.35,5.35,0,0,1-2.92-.71,3.35,3.35,0,0,1-1.4-2.38,10.16,10.16,0,0,1-4,2.31,15.56,15.56,0,0,1-4.81.78,9.75,9.75,0,0,1-6.18-1.94,6.5,6.5,0,0,1-2.5-5.46,7.84,7.84,0,0,1,.81-3.76,5.83,5.83,0,0,1,2.18-2.3,10.83,10.83,0,0,1,3-1.2,29.66,29.66,0,0,1,3.75-.64c.56-.1,1.37-.21,2.45-.34a14.49,14.49,0,0,0,4-.91,2.32,2.32,0,0,0,1.2-2.33,3,3,0,0,0-.46-1.72,3.05,3.05,0,0,0-1.23-1.05,5.93,5.93,0,0,0-1.67-.52,11.49,11.49,0,0,0-1.89-.15,6.84,6.84,0,0,0-3.92,1,3.91,3.91,0,0,0-1.67,3h-5.59a8.7,8.7,0,0,1,1.13-4,7.53,7.53,0,0,1,2.6-2.63,11.34,11.34,0,0,1,3.6-1.39,20.35,20.35,0,0,1,4.2-.42,16.45,16.45,0,0,1,3.72.42,10.76,10.76,0,0,1,3.27,1.3,6.66,6.66,0,0,1,2.3,2.3,6.36,6.36,0,0,1,.86,3.34Zm-5.59-7.06a6,6,0,0,1-1.94.79c-.73.16-1.66.31-2.77.44-.92.1-1.64.19-2.16.29a7.38,7.38,0,0,0-3.33,1.28,3.45,3.45,0,0,0-1.23,2.94,2.39,2.39,0,0,0,.49,1.52,3.39,3.39,0,0,0,1.28,1,7.43,7.43,0,0,0,1.69.54,9.48,9.48,0,0,0,1.69.17,8.88,8.88,0,0,0,2.09-.27,7.13,7.13,0,0,0,2-.86,4.73,4.73,0,0,0,1.55-1.5,3.92,3.92,0,0,0,.59-2.18Z"/><path class="cls-1" d="M38.57,208.26A122,122,0,0,0,49.18,223.4a37.24,37.24,0,0,1,2.38-10.8A56.59,56.59,0,0,1,38.57,208.26Z"/><path class="cls-1" d="M102.45,227.81A234.91,234.91,0,0,0,123.66,214a10.45,10.45,0,0,1-1.18-2.81,267,267,0,0,1-43.48,4q-3.81,0-7.43-.15a126.79,126.79,0,0,1-15.75-1.58c-2.32,6.09-3,11.3-1.94,15.38a124.64,124.64,0,0,0,10.74,10.32C72.66,241.19,85.71,237.34,102.45,227.81Z"/><path class="cls-1" d="M53.23,208.55a106.58,106.58,0,0,1,12.31-20A239.8,239.8,0,0,1,97,155.2a6.74,6.74,0,0,1,2.37-9.5c-3.34-8.44-6.34-16.88-9-25.16l-.49,0a12.87,12.87,0,0,1-11.33-6.76c-33.5,7.17-56.51,19.34-56.51,32.54a2.11,2.11,0,0,1-.75,1.6,122.7,122.7,0,0,0,12.72,52C37.79,203.78,44.34,206.71,53.23,208.55Z"/><path class="cls-1" d="M243.43,167.5c-3.08,2-6.37,4-9.81,6a5.82,5.82,0,0,1,.08.73,6.45,6.45,0,0,1-.49,2.45c10.53,10.19,17.31,20,19.36,28.39A122.8,122.8,0,0,0,268,145.24v-.13C263.32,152.27,255.07,159.86,243.43,167.5Z"/><path class="cls-1" d="M230.28,179.86a6.29,6.29,0,0,1-3,.79,6.36,6.36,0,0,1-4.13-1.54c-18,9.1-39.47,17.24-62.46,23.6q-8.68,2.4-17.25,4.34a9.92,9.92,0,0,1-2.51,8.5,212.84,212.84,0,0,0,16,20.5c14.79,16.58,28,24.59,36.82,22.4a123.85,123.85,0,0,0,55.2-47.3C249.68,202.85,242.71,191.77,230.28,179.86Z"/><path class="cls-1" d="M153.71,238.91a217.92,217.92,0,0,1-16.21-20.74,10.53,10.53,0,0,1-10.94-1,242.48,242.48,0,0,1-22,14.33c-13.8,7.86-25.26,12-34,12.34a123.32,123.32,0,0,0,113.82,18.18C175.46,259.4,165,251.56,153.71,238.91Z"/><path class="cls-1" d="M238.69,81.32a41.12,41.12,0,0,1,12.06,1,123.67,123.67,0,0,0-10-14.45A51.7,51.7,0,0,1,238.69,81.32Z"/><path class="cls-1" d="M83.84,74.32c.9,6.5,2.22,13.45,3.92,20.69a12.76,12.76,0,0,1,14.82,10.36,354.66,354.66,0,0,1,42.6-2.51c7.94,0,15.74.27,23.33.76a6.76,6.76,0,0,1,11.72-3.93c19.87-9.58,38.87-16.17,53.82-18,2.47-8.15,3-14.83,1.67-19.72A123.41,123.41,0,0,0,85.39,37C82.16,44.83,81.56,57.68,83.84,74.32Z"/><path class="cls-1" d="M66.6,101.4c3.67.35,7.48.86,11.38,1.49a13,13,0,0,1,5.71-6.46c-1.78-7.54-3.17-14.77-4.1-21.52-2-14.46-1.83-26.17.32-34.71a123.7,123.7,0,0,0-52.28,65.91C35.75,101.38,49.07,99.71,66.6,101.4Z"/><path class="cls-1" d="M77.21,109.6a12.1,12.1,0,0,1-.16-1.91c0-.2,0-.4,0-.6q-5.61-.9-10.9-1.42c-20.75-2-35.29.88-40.8,7.88a123.42,123.42,0,0,0-3.72,22.16C29.75,124.78,50,115.48,77.21,109.6Z"/><path class="cls-1" d="M237.36,85.74A141.13,141.13,0,0,1,226,110.39a6.32,6.32,0,0,1,1.11,2.68c18.29,5.15,32.43,12,40.25,19.63A122.84,122.84,0,0,0,254,88.05C250,85.93,244.38,85.19,237.36,85.74Z"/><path class="cls-1" d="M187.91,155.32a8.46,8.46,0,0,1-1.42-4.71,8.59,8.59,0,0,1,.39-2.44,351.45,351.45,0,0,0-36.66-18.6c-1.19-.52-2.38-1-3.57-1.52a6.38,6.38,0,0,1-8.39.73q-2.44,1.64-4.87,3.32C125,138,116.94,144,109.44,150.21a6.82,6.82,0,0,1,.14,1.36,6.68,6.68,0,0,1-1.42,4.11c.75,1.72,1.5,3.44,2.27,5.16a367.06,367.06,0,0,0,19.4,37.46,10.36,10.36,0,0,1,3-.48,10.69,10.69,0,0,1,7.63,3.19c10.45-8.61,21.13-18.32,31.64-28.83C177.59,166.7,182.87,161.05,187.91,155.32Z"/><path class="cls-1" d="M200.89,156.88a8.54,8.54,0,0,1-5.82,2.31,8.43,8.43,0,0,1-3.93-1q-7.54,8.53-16,17c-9.7,9.69-19.53,18.7-29.21,26.81,4.5-1.07,9-2.22,13.58-3.48,22.63-6.26,43.72-14.25,61.42-23.16a6.45,6.45,0,0,1-.12-1.17,6.35,6.35,0,0,1,.46-2.35A238,238,0,0,0,200.89,156.88Z"/><path class="cls-1" d="M233.51,119.38c-2.29-.74-4.67-1.44-7.1-2.13a6.4,6.4,0,0,1-5.59,3.31,6.69,6.69,0,0,1-.89-.08,292.84,292.84,0,0,1-18,25,8.5,8.5,0,0,1,1.76,5.16,8.32,8.32,0,0,1-.43,2.55,234.87,234.87,0,0,1,21,15.43,6.3,6.3,0,0,1,7.54,1c3.27-1.88,6.4-3.78,9.34-5.71,13.67-9,22.55-17.84,25.82-25.52C261.75,131.47,250.22,124.83,233.51,119.38Z"/><path class="cls-1" d="M182,104.75a293.68,293.68,0,0,1,33.74,5.44,6.4,6.4,0,0,1,5.06-2.5,6.33,6.33,0,0,1,1.52.2c1.29-2.27,2.52-4.52,3.64-6.72a132.5,132.5,0,0,0,6.57-14.88c-13.66,2-31.33,8-50.56,17.29,0,.24.07.47.07.72S182,104.6,182,104.75Z"/><path class="cls-1" d="M148.47,123.58a5.32,5.32,0,0,1-.06.56c1.18.5,2.35,1,3.52,1.5a361.39,361.39,0,0,1,37.2,18.79,8.56,8.56,0,0,1,5.94-2.41,8.45,8.45,0,0,1,3.38.7A293.38,293.38,0,0,0,216,118.38a6.42,6.42,0,0,1-1.63-4.14,296.33,296.33,0,0,0-34.15-5.34,6.73,6.73,0,0,1-9.57.41c-7.34,3.9-14.83,8.22-22.34,12.93A6.62,6.62,0,0,1,148.47,123.58Z"/><path class="cls-1" d="M142,117.14a6.39,6.39,0,0,1,4,1.47c6.14-3.84,12.38-7.49,18.62-10.91-6.46-.35-13-.55-19.51-.55a346.06,346.06,0,0,0-38.57,2.15c9.88,2.79,20.11,6.23,30.45,10.23A6.43,6.43,0,0,1,142,117.14Z"/><path class="cls-1" d="M107.24,146.47c7.44-6.1,15.38-12.11,23.7-17.89q2.43-1.7,4.9-3.34a6.12,6.12,0,0,1-.25-1.66h0a333,333,0,0,0-33.72-11.12,12.93,12.93,0,0,1-7.25,7.22c2.65,8.29,5.68,16.74,9.05,25.19A6.77,6.77,0,0,1,107.24,146.47Z"/><path class="cls-1" d="M104.55,158.12a7,7,0,0,1-1.78.26,6.66,6.66,0,0,1-2.37-.45C87.86,169,77.13,180.32,69,191.11a105.23,105.23,0,0,0-11.37,18.22,124.65,124.65,0,0,0,14.16,1.35c14.85.62,32.13-.73,50.53-3.83a10.62,10.62,0,0,1,3.75-6.53,373.24,373.24,0,0,1-19.51-37.72C105.85,161.11,105.2,159.61,104.55,158.12Z"/></svg>