<svg id="Camada_1" data-name="Camada 1" xmlns="http://www.w3.org/2000/svg" viewBox="0 0 468.8 159.7"><defs><style>.cls-1{fill:#fff;}</style></defs><title>ojs</title><path class="cls-1" d="M141.1,67.1H109.54V28.22H141.1v7.11H117.43v9h22.83v6.83H117.43v8.77H141.1Z"/><path class="cls-1" d="M166.46,67.1V52.44c0-3.61-2.05-6.89-6.09-6.89s-6.32,3.28-6.32,6.89V67.1H146.7V39.67h6.81l.54,3.33c1.57-2.78,5-3.78,7.83-3.78,3.55,0,7.11,1.34,8.79,5.11,2.65-3.89,6.08-5,9.94-5,8.43,0,12.59,4.78,12.59,13V67.1h-7.35V52.33c0-3.61-1.63-6.66-5.6-6.66s-6.45,3.16-6.45,6.77V67.1Z"/><path class="cls-1" d="M238.6,67.1h-9.45l-12.29-13h-7.65v13h-8V28.17c6.69,0,13.37,0,20.06,0,9.94.06,15.18,6.17,15.18,12.89,0,5.33-2.65,10.72-10.66,12.22L238.6,66.6Zm-29.39-32V47.5h12.11c5.06,0,7.23-3.11,7.23-6.22s-2.23-6.22-7.23-6.22Z"/><path class="cls-1" d="M247.57,55.83c.49,3.39,3.68,5.83,8.86,5.83,2.71,0,6.26-.94,7.95-2.55l4.7,4.27c-3.14,3-8.26,4.45-12.77,4.45C246.07,67.83,240,62,240,53.22c0-8.33,6.14-14.33,15.78-14.33,9.93,0,16.14,5.66,15,16.94Zm16.15-5.61c-.49-3.55-3.5-5.33-7.71-5.33-4,0-7.23,1.78-8.32,5.33Z"/><path class="cls-1" d="M307.26,28.28V67.1h-6.87l-.48-3.77c-2.29,3.27-6,4.39-9.58,4.39-8.73,0-15.29-5.34-15.29-14.33,0-9.45,6.44-14.33,15.11-14.33,3.13,0,8,1.55,9.76,4.38V28.28ZM282.38,53.39c0,4.77,3.74,8,8.43,8s8.62-3.11,8.62-8c0-4.78-4-8-8.62-8S282.38,48.44,282.38,53.39Z"/><path class="cls-1" d="M320.56,55.83c.48,3.39,3.68,5.83,8.86,5.83,2.71,0,6.26-.94,7.95-2.55l4.69,4.27c-3.13,3-8.25,4.45-12.76,4.45C319.06,67.83,313,62,313,53.22c0-8.33,6.15-14.33,15.78-14.33,9.94,0,16.14,5.66,15,16.94Zm16.14-5.61c-.48-3.55-3.49-5.33-7.7-5.33-4,0-7.23,1.78-8.32,5.33Z"/><path class="cls-1" d="M111,87.83V93H110V81.59h4.47a4.92,4.92,0,0,1,2.91.72,2.62,2.62,0,0,1,1,2.28,3,3,0,0,1-.42,1.71,3.24,3.24,0,0,1-1.43,1.08,1.77,1.77,0,0,1,.78.49,1.9,1.9,0,0,1,.43.74,3.89,3.89,0,0,1,.18.85,9.43,9.43,0,0,1,.07,1,11.08,11.08,0,0,0,.14,1.75,1.2,1.2,0,0,0,.33.68V93h-1.19a3,3,0,0,1-.27-.94c0-.41-.09-.92-.12-1.54a10.6,10.6,0,0,0-.12-1.32,1.43,1.43,0,0,0-.74-1.11,3.46,3.46,0,0,0-1.53-.28Zm3.36-.92a3.43,3.43,0,0,0,2.07-.57,2,2,0,0,0,.77-1.71,2.22,2.22,0,0,0-.22-1,1.64,1.64,0,0,0-.6-.65,2.74,2.74,0,0,0-.88-.34,6.1,6.1,0,0,0-1.07-.09H111v4.4Z"/><path class="cls-1" d="M121,89.13a3.66,3.66,0,0,0,.72,2.33,2.42,2.42,0,0,0,2,.92,2.57,2.57,0,0,0,1.61-.5,2.31,2.31,0,0,0,.89-1.38h1.06a4.29,4.29,0,0,1-1.24,2,3.4,3.4,0,0,1-2.32.73,4,4,0,0,1-1.67-.32,3,3,0,0,1-1.19-.9,3.79,3.79,0,0,1-.7-1.37,6.5,6.5,0,0,1-.22-1.71,5.55,5.55,0,0,1,.26-1.7,4.4,4.4,0,0,1,.76-1.4,3.41,3.41,0,0,1,1.2-.93,3.5,3.5,0,0,1,1.56-.34,3.24,3.24,0,0,1,2.66,1.18,5.22,5.22,0,0,1,1,3.38Zm5.37-.79a3.17,3.17,0,0,0-.69-2.09,2.37,2.37,0,0,0-1.92-.82,2.41,2.41,0,0,0-1.9.82,3.87,3.87,0,0,0-.86,2.09Z"/><path class="cls-1" d="M128.38,84.79h1l2.67,7.06,2.67-7.06h1L132.59,93h-1.07Z"/><path class="cls-1" d="M137.29,83V81.59h1.05V83Zm0,10V84.79h1V93Z"/><path class="cls-1" d="M141.27,90.45a2.44,2.44,0,0,0,.81,1.49,2.62,2.62,0,0,0,1.65.44,2.25,2.25,0,0,0,1.51-.44,1.38,1.38,0,0,0,.53-1.08,1.13,1.13,0,0,0-.19-.67,1.25,1.25,0,0,0-.5-.43,4.3,4.3,0,0,0-.69-.26c-.26-.08-.58-.15-1-.23s-.87-.19-1.17-.28a3.74,3.74,0,0,1-.87-.37,1.87,1.87,0,0,1-.65-.66,2.08,2.08,0,0,1-.25-1,2.12,2.12,0,0,1,.78-1.7,3.23,3.23,0,0,1,2.12-.65,3.54,3.54,0,0,1,2.19.62,2.81,2.81,0,0,1,1,2h-1a1.83,1.83,0,0,0-.7-1.32,2.58,2.58,0,0,0-1.52-.41,2.19,2.19,0,0,0-1.37.38,1.23,1.23,0,0,0-.49,1,1.09,1.09,0,0,0,.18.63,1.37,1.37,0,0,0,.5.42,3.51,3.51,0,0,0,.66.27c.24.08.56.16,1,.26s.9.22,1.2.31a4,4,0,0,1,.86.41,1.83,1.83,0,0,1,.91,1.7,2,2,0,0,1-.92,1.78,4.29,4.29,0,0,1-2.43.62,3.1,3.1,0,0,1-2.24-.79,2.92,2.92,0,0,1-.89-2Z"/><path class="cls-1" d="M151.55,93.05l-.18,0a3.67,3.67,0,0,1-.92.14,1.45,1.45,0,0,1-1.09-.37,1.74,1.74,0,0,1-.37-1.26v-6h-1.16v-.8H149V82.51h.95v2.28h1.54v.8h-1.54v5.64a2.1,2.1,0,0,0,.14.92c.09.16.32.23.69.23a3,3,0,0,0,.78-.11Z"/><path class="cls-1" d="M156.85,88.22a6.75,6.75,0,0,0,.69-.1,2.45,2.45,0,0,0,.57-.17.5.5,0,0,0,.28-.32,2.06,2.06,0,0,0,.07-.53,1.58,1.58,0,0,0-.5-1.23,2.28,2.28,0,0,0-1.55-.44,2.88,2.88,0,0,0-1.67.42,1.93,1.93,0,0,0-.73,1.44h-1a2.58,2.58,0,0,1,1-2.05,3.89,3.89,0,0,1,2.35-.67,3.59,3.59,0,0,1,2.18.6,2.3,2.3,0,0,1,.81,2v4.48c0,.51.14.76.43.76a1.71,1.71,0,0,0,.57-.13V93l-.38.11a1.64,1.64,0,0,1-.37.05,2.09,2.09,0,0,1-.42-.05.71.71,0,0,1-.59-.38,1.94,1.94,0,0,1-.18-.84,3.91,3.91,0,0,1-1.38,1,4,4,0,0,1-1.68.35,3,3,0,0,1-2-.62,2.07,2.07,0,0,1-.79-1.74c0-1.4,1-2.23,2.87-2.48Zm1.61.48a5,5,0,0,1-1.09.31c-.37.06-.82.11-1.37.15a3.29,3.29,0,0,0-1.73.51,1.45,1.45,0,0,0-.59,1.24A1.26,1.26,0,0,0,154.2,92a2,2,0,0,0,1.26.38,4.14,4.14,0,0,0,1.12-.14,3.21,3.21,0,0,0,1-.43,2.13,2.13,0,0,0,.67-.76,2.16,2.16,0,0,0,.25-1.06Z"/><path class="cls-1" d="M172.67,81.59h1V93h-1V91.58h0a3,3,0,0,1-1.21,1.22,3.46,3.46,0,0,1-1.65.44,4.13,4.13,0,0,1-1.68-.32A3,3,0,0,1,167,92a3.69,3.69,0,0,1-.67-1.36,6.58,6.58,0,0,1-.22-1.72,5.89,5.89,0,0,1,.23-1.66,3.92,3.92,0,0,1,.68-1.39,3.19,3.19,0,0,1,1.16-1,3.8,3.8,0,0,1,3.29.07,3,3,0,0,1,1.25,1.13Zm-.19,6a3.27,3.27,0,0,0-.56-1.1,2.54,2.54,0,0,0-.88-.75,2.44,2.44,0,0,0-1.15-.27,2.39,2.39,0,0,0-2.09,1,4.59,4.59,0,0,0-.72,2.72,3.49,3.49,0,0,0,.79,2.37,2.61,2.61,0,0,0,2,.85,2.39,2.39,0,0,0,2-1,4.12,4.12,0,0,0,.74-2.52A4.46,4.46,0,0,0,172.48,87.55Z"/><path class="cls-1" d="M176.61,89.13a3.66,3.66,0,0,0,.72,2.33,2.42,2.42,0,0,0,2,.92,2.57,2.57,0,0,0,1.61-.5,2.31,2.31,0,0,0,.89-1.38h1.06a4.21,4.21,0,0,1-1.24,2,3.4,3.4,0,0,1-2.32.73,4,4,0,0,1-1.67-.32,3,3,0,0,1-1.19-.9,3.79,3.79,0,0,1-.7-1.37,6.5,6.5,0,0,1-.22-1.71,5.55,5.55,0,0,1,.26-1.7,4.4,4.4,0,0,1,.76-1.4,3.41,3.41,0,0,1,1.2-.93,3.5,3.5,0,0,1,1.56-.34A3.22,3.22,0,0,1,182,85.75a5.22,5.22,0,0,1,1,3.38Zm5.37-.79a3.17,3.17,0,0,0-.69-2.09,2.37,2.37,0,0,0-1.92-.82,2.42,2.42,0,0,0-1.9.82,3.87,3.87,0,0,0-.86,2.09Z"/><path class="cls-1" d="M189.41,93V81.59H197v.92h-6.53v4.13h5.89v.92h-5.89V92.1h6.69V93Z"/><path class="cls-1" d="M205.32,81.59h1V93h-1V91.58h0a2.9,2.9,0,0,1-1.21,1.22,3.46,3.46,0,0,1-1.65.44,4.08,4.08,0,0,1-1.67-.32A3,3,0,0,1,199.6,92a3.85,3.85,0,0,1-.67-1.36,6.59,6.59,0,0,1-.21-1.72,5.9,5.9,0,0,1,.22-1.66,4.1,4.1,0,0,1,.68-1.39,3.19,3.19,0,0,1,1.16-1,3.83,3.83,0,0,1,3.3.07,3,3,0,0,1,1.24,1.13Zm-.19,6a3.44,3.44,0,0,0-.55-1.1,2.66,2.66,0,0,0-.89-.75,2.64,2.64,0,0,0-3.24.74,4.59,4.59,0,0,0-.72,2.72,3.44,3.44,0,0,0,.8,2.37,2.58,2.58,0,0,0,2,.85,2.39,2.39,0,0,0,2-1,4.05,4.05,0,0,0,.74-2.52A4.46,4.46,0,0,0,205.13,87.55Z"/><path class="cls-1" d="M214.25,84.79h.95V93h-.95V91.88a6,6,0,0,1-1.14,1,2.77,2.77,0,0,1-1.51.36,3.46,3.46,0,0,1-1.36-.23,2.25,2.25,0,0,1-.91-.63,2.59,2.59,0,0,1-.5-1,4.54,4.54,0,0,1-.16-1.21V84.79h1v5.4a2.4,2.4,0,0,0,.5,1.64,2.09,2.09,0,0,0,1.61.55,2.19,2.19,0,0,0,1.83-.86,3.57,3.57,0,0,0,.68-2.25Z"/><path class="cls-1" d="M223.33,87.38a2.7,2.7,0,0,0-.88-1.44,2.4,2.4,0,0,0-1.56-.51,2.54,2.54,0,0,0-1.23.29,2.5,2.5,0,0,0-.88.8,3.45,3.45,0,0,0-.5,1.12,5.24,5.24,0,0,0,0,2.57,3.5,3.5,0,0,0,.5,1.11,2.5,2.5,0,0,0,.87.78,2.55,2.55,0,0,0,1.24.28,2.45,2.45,0,0,0,1.7-.58,2.74,2.74,0,0,0,.82-1.62h1a3.81,3.81,0,0,1-1.15,2.24,3.4,3.4,0,0,1-2.39.82,4.16,4.16,0,0,1-1.68-.32A3,3,0,0,1,218,92a3.93,3.93,0,0,1-.69-1.37,5.8,5.8,0,0,1-.23-1.71,5.58,5.58,0,0,1,.24-1.65,4.5,4.5,0,0,1,.73-1.39,3.5,3.5,0,0,1,1.2-1,3.66,3.66,0,0,1,1.61-.35,3.59,3.59,0,0,1,2.32.71,3.16,3.16,0,0,1,1.09,2.1Z"/><path class="cls-1" d="M230.11,88.22a6.38,6.38,0,0,0,.69-.1,2.45,2.45,0,0,0,.57-.17.5.5,0,0,0,.28-.32,2.06,2.06,0,0,0,.07-.53,1.61,1.61,0,0,0-.49-1.23,2.32,2.32,0,0,0-1.56-.44,2.88,2.88,0,0,0-1.67.42,2,2,0,0,0-.73,1.44h-1a2.61,2.61,0,0,1,1-2.05,3.9,3.9,0,0,1,2.36-.67,3.56,3.56,0,0,1,2.17.6,2.3,2.3,0,0,1,.81,2v4.48c0,.51.14.76.43.76a1.71,1.71,0,0,0,.57-.13V93l-.38.11a1.64,1.64,0,0,1-.37.05,2.09,2.09,0,0,1-.42-.05.71.71,0,0,1-.59-.38,1.94,1.94,0,0,1-.18-.84,3.91,3.91,0,0,1-1.38,1,4,4,0,0,1-1.68.35,3.06,3.06,0,0,1-2-.62,2.1,2.1,0,0,1-.79-1.74c0-1.4,1-2.23,2.88-2.48Zm1.61.48a4.81,4.81,0,0,1-1.09.31c-.37.06-.82.11-1.37.15a3.29,3.29,0,0,0-1.73.51,1.45,1.45,0,0,0-.59,1.24,1.26,1.26,0,0,0,.52,1.09,2,2,0,0,0,1.26.38,4.14,4.14,0,0,0,1.12-.14,3.21,3.21,0,0,0,1-.43,2.13,2.13,0,0,0,.67-.76,2.16,2.16,0,0,0,.25-1.06Z"/><path class="cls-1" d="M241,87.38a2.7,2.7,0,0,0-.88-1.44,2.4,2.4,0,0,0-1.56-.51,2.54,2.54,0,0,0-1.23.29,2.5,2.5,0,0,0-.88.8,3.45,3.45,0,0,0-.5,1.12,5.24,5.24,0,0,0,0,2.57,3.5,3.5,0,0,0,.5,1.11,2.5,2.5,0,0,0,.87.78,2.55,2.55,0,0,0,1.24.28,2.45,2.45,0,0,0,1.7-.58,2.68,2.68,0,0,0,.82-1.62h1A3.88,3.88,0,0,1,241,92.39a3.36,3.36,0,0,1-2.33.85l-.58.72a2.39,2.39,0,0,1,.58-.1,1.37,1.37,0,0,1,.83.26.88.88,0,0,1,.39.57,1.53,1.53,0,0,1,0,.3,1.08,1.08,0,0,1-.52,1,2.2,2.2,0,0,1-1.26.34,4.12,4.12,0,0,1-1.44-.3l.24-.48.11,0a3,3,0,0,0,.9.21,1.43,1.43,0,0,0,.72-.19A.62.62,0,0,0,239,95a.54.54,0,0,0-.23-.46,1,1,0,0,0-.56-.16,3.16,3.16,0,0,0-.66.11l0,0-.24-.21.82-1.12a3.2,3.2,0,0,1-2.46-1.32,5,5,0,0,1-.82-3,5.58,5.58,0,0,1,.24-1.65,4.5,4.5,0,0,1,.73-1.39,3.5,3.5,0,0,1,1.2-1,3.66,3.66,0,0,1,1.61-.35,3.59,3.59,0,0,1,2.32.71,3.16,3.16,0,0,1,1.09,2.1Z"/><path class="cls-1" d="M247.77,88.22a6.38,6.38,0,0,0,.69-.1A2.45,2.45,0,0,0,249,88a.5.5,0,0,0,.28-.32,2.06,2.06,0,0,0,.07-.53,1.61,1.61,0,0,0-.49-1.23,2.32,2.32,0,0,0-1.56-.44,2.88,2.88,0,0,0-1.67.42,2,2,0,0,0-.73,1.44h-1a2.61,2.61,0,0,1,1-2.05,3.9,3.9,0,0,1,2.36-.67,3.56,3.56,0,0,1,2.17.6,2.3,2.3,0,0,1,.81,2v4.48c0,.51.14.76.43.76a1.71,1.71,0,0,0,.57-.13V93l-.38.11a1.64,1.64,0,0,1-.37.05,2.09,2.09,0,0,1-.42-.05.71.71,0,0,1-.59-.38,1.94,1.94,0,0,1-.18-.84,3.91,3.91,0,0,1-1.38,1,4,4,0,0,1-1.68.35,3,3,0,0,1-2-.62,2.08,2.08,0,0,1-.8-1.74c0-1.4,1-2.23,2.88-2.48Zm1.61.48a4.81,4.81,0,0,1-1.09.31c-.37.06-.82.11-1.37.15a3.29,3.29,0,0,0-1.73.51,1.45,1.45,0,0,0-.59,1.24,1.26,1.26,0,0,0,.52,1.09,2,2,0,0,0,1.26.38,4.14,4.14,0,0,0,1.12-.14,3.21,3.21,0,0,0,1-.43,2.13,2.13,0,0,0,.67-.76,2.16,2.16,0,0,0,.25-1.06Zm-4.5-5a2.29,2.29,0,0,1,.32-.93,1.64,1.64,0,0,1,.5-.45,1.35,1.35,0,0,1,.61-.16,1,1,0,0,1,.29,0,4.26,4.26,0,0,1,.87.33c.26.12.47.2.63.26a1.29,1.29,0,0,0,.45.09.55.55,0,0,0,.47-.22,1.63,1.63,0,0,0,.23-.58h.6a3.6,3.6,0,0,1-.09.5l0,.11a2.23,2.23,0,0,1-.48.69,1,1,0,0,1-.7.26,1.56,1.56,0,0,1-.57-.1c-.18-.06-.41-.15-.7-.28a2.74,2.74,0,0,0-1.05-.33.57.57,0,0,0-.48.2,1.89,1.89,0,0,0-.29.57Z"/><path class="cls-1" d="M253.36,92.09a4.41,4.41,0,0,1-1.08-3.18,4.77,4.77,0,0,1,1-3.12,3.88,3.88,0,0,1,5.65,0,4.83,4.83,0,0,1,1,3.12,4.61,4.61,0,0,1-1,3.14,3.49,3.49,0,0,1-2.77,1.19A3.73,3.73,0,0,1,253.36,92.09Zm5.37-4.56a3.24,3.24,0,0,0-.49-1.1,2.24,2.24,0,0,0-.87-.74,3,3,0,0,0-1.27-.26,2.66,2.66,0,0,0-1.26.28,2.55,2.55,0,0,0-.88.78,3.16,3.16,0,0,0-.5,1.1,5.08,5.08,0,0,0-.16,1.32,4,4,0,0,0,.73,2.52,2.45,2.45,0,0,0,2.07.95,2.66,2.66,0,0,0,1.26-.28,2.5,2.5,0,0,0,.87-.78,3.29,3.29,0,0,0,.5-1.11,5,5,0,0,0,.16-1.3A5.34,5.34,0,0,0,258.73,87.53Z"/><path class="cls-1" d="M269.85,88.22a6.22,6.22,0,0,0,.68-.1,2.17,2.17,0,0,0,.57-.17.5.5,0,0,0,.28-.32,1.7,1.7,0,0,0,.07-.53,1.58,1.58,0,0,0-.49-1.23,2.32,2.32,0,0,0-1.56-.44,2.87,2.87,0,0,0-1.66.42,1.9,1.9,0,0,0-.73,1.44h-1a2.57,2.57,0,0,1,1-2.05,3.92,3.92,0,0,1,2.36-.67,3.59,3.59,0,0,1,2.18.6,2.3,2.3,0,0,1,.81,2v4.48c0,.51.14.76.42.76a1.81,1.81,0,0,0,.58-.13V93l-.38.11a1.64,1.64,0,0,1-.37.05,2.18,2.18,0,0,1-.43-.05.74.74,0,0,1-.59-.38,2.11,2.11,0,0,1-.17-.84,3.91,3.91,0,0,1-1.38,1,4,4,0,0,1-1.69.35,3,3,0,0,1-1.95-.62,2.07,2.07,0,0,1-.79-1.74c0-1.4.95-2.23,2.87-2.48Zm1.6.48a4.88,4.88,0,0,1-1.08.31q-.56.09-1.38.15a3.28,3.28,0,0,0-1.72.51,1.44,1.44,0,0,0-.6,1.24A1.27,1.27,0,0,0,267.2,92a2,2,0,0,0,1.25.38,4.09,4.09,0,0,0,1.12-.14,3,3,0,0,0,1-.43,2.16,2.16,0,0,0,.68-.76,2.27,2.27,0,0,0,.24-1.06Z"/><path class="cls-1" d="M279.46,93V81.59h3.9a10.15,10.15,0,0,1,2,.16,4,4,0,0,1,1.55.69,3.52,3.52,0,0,1,.91,1,5.18,5.18,0,0,1,.59,1.26A8,8,0,0,1,288.7,86a9.66,9.66,0,0,1,.09,1.29,8.69,8.69,0,0,1-.32,2.4,4.71,4.71,0,0,1-1.06,1.93,3.62,3.62,0,0,1-1.72,1.11,8.58,8.58,0,0,1-2.33.29Zm1.08-.92h2.59a9,9,0,0,0,1.46-.1,4.12,4.12,0,0,0,1.22-.42,3.09,3.09,0,0,0,.92-.76,3.56,3.56,0,0,0,.6-1.06,6.2,6.2,0,0,0,.3-1.2,8.93,8.93,0,0,0,.09-1.27,9.15,9.15,0,0,0-.09-1.3,5.46,5.46,0,0,0-.31-1.22,3.85,3.85,0,0,0-.61-1.06,3.17,3.17,0,0,0-1-.77,3.21,3.21,0,0,0-1.12-.35,13.32,13.32,0,0,0-1.5-.08h-2.59Z"/><path class="cls-1" d="M290.88,83V81.59h1V83Zm0,10V84.79h1V93Z"/><path class="cls-1" d="M294.86,90.45a2.48,2.48,0,0,0,.8,1.49,2.67,2.67,0,0,0,1.66.44,2.25,2.25,0,0,0,1.51-.44,1.38,1.38,0,0,0,.53-1.08,1.2,1.2,0,0,0-.19-.67,1.32,1.32,0,0,0-.5-.43,4.09,4.09,0,0,0-.7-.26c-.25-.08-.57-.15-1-.23a11.39,11.39,0,0,1-1.17-.28,3.74,3.74,0,0,1-.87-.37,1.79,1.79,0,0,1-.65-.66,2.08,2.08,0,0,1-.25-1,2.12,2.12,0,0,1,.78-1.7,3.21,3.21,0,0,1,2.11-.65,3.55,3.55,0,0,1,2.2.62,2.81,2.81,0,0,1,1,2h-1a1.86,1.86,0,0,0-.7-1.32,2.58,2.58,0,0,0-1.52-.41,2.24,2.24,0,0,0-1.38.38,1.24,1.24,0,0,0-.48,1,1.09,1.09,0,0,0,.18.63,1.29,1.29,0,0,0,.5.42,3.26,3.26,0,0,0,.66.27c.24.08.56.16,1,.26s.9.22,1.19.31a3.83,3.83,0,0,1,.87.41,1.83,1.83,0,0,1,.91,1.7,2,2,0,0,1-.92,1.78,4.29,4.29,0,0,1-2.43.62,3.1,3.1,0,0,1-2.24-.79,2.92,2.92,0,0,1-.89-2Z"/><path class="cls-1" d="M305.14,93.05l-.18,0a3.73,3.73,0,0,1-.92.14,1.44,1.44,0,0,1-1.09-.37,1.74,1.74,0,0,1-.37-1.26v-6h-1.16v-.8h1.16V82.51h.95v2.28h1.54v.8h-1.54v5.64a2.1,2.1,0,0,0,.14.92c.09.16.32.23.69.23a3,3,0,0,0,.78-.11Z"/><path class="cls-1" d="M310.44,88.22a6.75,6.75,0,0,0,.69-.1,2.45,2.45,0,0,0,.57-.17.48.48,0,0,0,.27-.32,1.69,1.69,0,0,0,.08-.53,1.58,1.58,0,0,0-.5-1.23,2.3,2.3,0,0,0-1.55-.44,2.88,2.88,0,0,0-1.67.42,1.93,1.93,0,0,0-.73,1.44h-1a2.6,2.6,0,0,1,1-2.05,3.92,3.92,0,0,1,2.36-.67,3.59,3.59,0,0,1,2.18.6,2.3,2.3,0,0,1,.81,2v4.48c0,.51.14.76.43.76a1.76,1.76,0,0,0,.57-.13V93l-.38.11a1.64,1.64,0,0,1-.37.05,2.27,2.27,0,0,1-.43-.05.71.71,0,0,1-.58-.38,1.94,1.94,0,0,1-.18-.84,3.91,3.91,0,0,1-1.38,1,4,4,0,0,1-1.68.35,3,3,0,0,1-2-.62,2.07,2.07,0,0,1-.79-1.74c0-1.4,1-2.23,2.87-2.48Zm1.61.48A5,5,0,0,1,311,89q-.56.09-1.38.15a3.28,3.28,0,0,0-1.72.51,1.43,1.43,0,0,0-.59,1.24,1.26,1.26,0,0,0,.52,1.09,2,2,0,0,0,1.25.38,4,4,0,0,0,1.12-.14,3.15,3.15,0,0,0,1-.43,2.23,2.23,0,0,0,.67-.76,2.27,2.27,0,0,0,.25-1.06Zm-3.34-4.8h-1l1.81-2.2h1.06l1.8,2.2h-1L310,82.28Z"/><path class="cls-1" d="M316.45,93h-1V84.79h1v1.15a5.09,5.09,0,0,1,1.24-1,2.94,2.94,0,0,1,1.41-.34,3.52,3.52,0,0,1,1.44.28,2.39,2.39,0,0,1,1.07.9,2,2,0,0,1,.34.81,6.5,6.5,0,0,1,.07,1.08V93h-.95V87.65a2.42,2.42,0,0,0-.5-1.67,2.11,2.11,0,0,0-1.63-.55,2.32,2.32,0,0,0-1.44.46,2.42,2.42,0,0,0-.85,1.14,3.75,3.75,0,0,0-.17.7c0,.23,0,.52,0,.86Z"/><path class="cls-1" d="M330.15,87.38a2.7,2.7,0,0,0-.88-1.44,2.4,2.4,0,0,0-1.56-.51,2.61,2.61,0,0,0-1.24.29,2.56,2.56,0,0,0-.87.8,3.45,3.45,0,0,0-.5,1.12,5.24,5.24,0,0,0,0,2.57,3.5,3.5,0,0,0,.5,1.11,2.5,2.5,0,0,0,.87.78,2.55,2.55,0,0,0,1.24.28,2.43,2.43,0,0,0,1.69-.58,2.69,2.69,0,0,0,.83-1.62h1a3.86,3.86,0,0,1-1.15,2.24,3.4,3.4,0,0,1-2.39.82,4.16,4.16,0,0,1-1.68-.32,3,3,0,0,1-1.18-.92,3.93,3.93,0,0,1-.69-1.37,5.8,5.8,0,0,1-.23-1.71,5.58,5.58,0,0,1,.24-1.65,4.5,4.5,0,0,1,.73-1.39,3.4,3.4,0,0,1,1.2-1,3.66,3.66,0,0,1,1.61-.35,3.61,3.61,0,0,1,2.32.71,3.16,3.16,0,0,1,1.09,2.1Z"/><path class="cls-1" d="M333.25,83V81.59h1.05V83Zm0,10V84.79h1V93Z"/><path class="cls-1" d="M340.46,88.22a6.22,6.22,0,0,0,.68-.1,2.45,2.45,0,0,0,.57-.17.5.5,0,0,0,.28-.32,1.7,1.7,0,0,0,.07-.53,1.58,1.58,0,0,0-.49-1.23,2.32,2.32,0,0,0-1.56-.44,2.85,2.85,0,0,0-1.66.42,1.9,1.9,0,0,0-.73,1.44h-1a2.57,2.57,0,0,1,1-2.05,3.92,3.92,0,0,1,2.36-.67,3.61,3.61,0,0,1,2.18.6,2.32,2.32,0,0,1,.8,2v4.48c0,.51.15.76.43.76a1.81,1.81,0,0,0,.58-.13V93l-.39.11a1.56,1.56,0,0,1-.36.05,2.18,2.18,0,0,1-.43-.05.73.73,0,0,1-.59-.38,2.11,2.11,0,0,1-.17-.84A4,4,0,0,1,339,93.24a3,3,0,0,1-1.95-.62,2.08,2.08,0,0,1-.8-1.74c0-1.4,1-2.23,2.88-2.48Zm1.6.48A4.81,4.81,0,0,1,341,89c-.36.06-.82.11-1.37.15a3.25,3.25,0,0,0-1.72.51,1.44,1.44,0,0,0-.6,1.24A1.28,1.28,0,0,0,337.8,92a2,2,0,0,0,1.26.38,4.14,4.14,0,0,0,1.12-.14,3.21,3.21,0,0,0,1-.43,2.16,2.16,0,0,0,.68-.76,2.27,2.27,0,0,0,.24-1.06Z"/><path class="cls-1" d="M18.6,78.85A41,41,0,0,0,22,83.75a12.34,12.34,0,0,1,.77-3.5A18.53,18.53,0,0,1,18.6,78.85Z"/><path class="cls-1" d="M39.29,85.18a76.21,76.21,0,0,0,6.86-4.47,3.48,3.48,0,0,1-.37-.91A86.76,86.76,0,0,1,31.7,81.08c-.83,0-1.63,0-2.41,0a41.27,41.27,0,0,1-5.1-.51,8.48,8.48,0,0,0-.63,5A40.7,40.7,0,0,0,27,88.84C29.64,89.51,33.87,88.26,39.29,85.18Z"/><path class="cls-1" d="M23.35,78.94a34,34,0,0,1,4-6.48A77.36,77.36,0,0,1,37.53,61.67a2.23,2.23,0,0,1-.34-1.18,2.2,2.2,0,0,1,1.11-1.9c-1.08-2.73-2.06-5.46-2.91-8.14h-.16a4.17,4.17,0,0,1-3.67-2.19C20.72,50.59,13.27,54.53,13.27,58.8a.69.69,0,0,1-.25.52,39.8,39.8,0,0,0,4.12,16.84C18.35,77.4,20.47,78.34,23.35,78.94Z"/><path class="cls-1" d="M84.94,65.65c-1,.65-2.07,1.3-3.18,1.94a1.64,1.64,0,0,1,0,.23,2.15,2.15,0,0,1-.15.8c3.4,3.29,5.6,6.46,6.26,9.19a39.74,39.74,0,0,0,5-19.37v0A27.64,27.64,0,0,1,84.94,65.65Z"/><path class="cls-1" d="M80.68,69.65a2,2,0,0,1-2.32-.24,111.19,111.19,0,0,1-20.22,7.64q-2.82.78-5.59,1.41a2.52,2.52,0,0,1,.05.48,3.45,3.45,0,0,1-.86,2.27,68.46,68.46,0,0,0,5.18,6.64c4.79,5.36,9.08,8,11.92,7.25A40.11,40.11,0,0,0,86.72,79.78C87,77.1,84.7,73.51,80.68,69.65Z"/><path class="cls-1" d="M55.88,88.77a69.93,69.93,0,0,1-5.24-6.71,3.44,3.44,0,0,1-3.55-.32A77.8,77.8,0,0,1,40,86.39c-4.47,2.54-8.18,3.87-11,4A40,40,0,0,0,65.8,96.27C62.93,95.41,59.54,92.87,55.88,88.77Z"/><path class="cls-1" d="M83.4,37.75a13.35,13.35,0,0,1,3.91.31,41.16,41.16,0,0,0-3.26-4.68A16.59,16.59,0,0,1,83.4,37.75Z"/><path class="cls-1" d="M33.26,35.48c.29,2.11.72,4.36,1.27,6.7a4,4,0,0,1,.7-.06,4.16,4.16,0,0,1,4.1,3.41,115.88,115.88,0,0,1,13.79-.81c2.58,0,5.1.09,7.56.25a2.19,2.19,0,0,1,3.79-1.28c6.43-3.1,12.59-5.23,17.43-5.81a12,12,0,0,0,.54-6.38,39.94,39.94,0,0,0-48.68-8.1C32.72,25.93,32.52,30.09,33.26,35.48Z"/><path class="cls-1" d="M27.68,44.25c1.19.11,2.42.28,3.69.48a4.18,4.18,0,0,1,1.84-2.09c-.57-2.44-1-4.78-1.32-7A30.8,30.8,0,0,1,32,24.43,40.08,40.08,0,0,0,15.06,45.77C17.69,44.24,22,43.7,27.68,44.25Z"/><path class="cls-1" d="M31.11,46.9a4.07,4.07,0,0,1-.05-.61c0-.07,0-.14,0-.2-1.21-.19-2.39-.35-3.52-.46-6.72-.64-11.43.28-13.21,2.55a39.59,39.59,0,0,0-1.21,7.18C15.75,51.82,22.31,48.81,31.11,46.9Z"/><path class="cls-1" d="M83,39.18a46.05,46.05,0,0,1-3.66,8,2,2,0,0,1,.35.87c5.92,1.67,10.5,3.87,13,6.35a40,40,0,0,0-4.35-14.45A9.91,9.91,0,0,0,83,39.18Z"/><path class="cls-1" d="M67,61.71a2.78,2.78,0,0,1-.46-1.53,2.62,2.62,0,0,1,.13-.79,114.56,114.56,0,0,0-11.88-6l-1.15-.49a2.08,2.08,0,0,1-2.72.23l-1.57,1.08c-2.73,1.89-5.33,3.86-7.76,5.86a2.11,2.11,0,0,1-.41,1.77c.24.56.48,1.12.73,1.67a118.77,118.77,0,0,0,6.28,12.13,3.52,3.52,0,0,1,1-.15,3.46,3.46,0,0,1,2.47,1c3.38-2.79,6.84-5.93,10.24-9.34C63.62,65.39,65.33,63.56,67,61.71Z"/><path class="cls-1" d="M71.16,62.21a2.74,2.74,0,0,1-1.88.75A2.79,2.79,0,0,1,68,62.64c-1.62,1.84-3.35,3.68-5.17,5.51-3.14,3.13-6.33,6-9.46,8.68,1.46-.35,2.92-.72,4.4-1.13a110.24,110.24,0,0,0,19.88-7.5,2.33,2.33,0,0,1,0-.38,2.14,2.14,0,0,1,.15-.76A77,77,0,0,0,71.16,62.21Z"/><path class="cls-1" d="M81.72,50.07c-.74-.24-1.51-.47-2.29-.69a2.07,2.07,0,0,1-1.82,1.07,1.33,1.33,0,0,1-.28,0,96,96,0,0,1-5.84,8.09,2.78,2.78,0,0,1,.57,1.67,2.89,2.89,0,0,1-.14.83,76.07,76.07,0,0,1,6.78,5,2.13,2.13,0,0,1,1-.26,2,2,0,0,1,1.44.59c1.06-.61,2.08-1.23,3-1.85,4.42-2.91,7.3-5.78,8.36-8.27C90.87,54,87.13,51.83,81.72,50.07Z"/><path class="cls-1" d="M65.05,45.33A94.62,94.62,0,0,1,76,47.1a2.06,2.06,0,0,1,2.13-.75c.41-.73.81-1.46,1.18-2.18a44,44,0,0,0,2.12-4.81C77,40,71.27,42,65,45a1.94,1.94,0,0,1,0,.24C65.06,45.24,65.05,45.28,65.05,45.33Z"/><path class="cls-1" d="M54.19,51.43a1.1,1.1,0,0,1,0,.18l1.14.49a116.51,116.51,0,0,1,12,6.08,2.78,2.78,0,0,1,1.93-.78,2.63,2.63,0,0,1,1.09.23c2.11-2.65,4-5.3,5.69-7.88a2.08,2.08,0,0,1-.53-1.34,95.84,95.84,0,0,0-11-1.73,2.24,2.24,0,0,1-1.62.71,2.18,2.18,0,0,1-1.48-.58C59,48.07,56.58,49.47,54.14,51A2,2,0,0,1,54.19,51.43Z"/><path class="cls-1" d="M52.1,49.35a2.08,2.08,0,0,1,1.31.47c2-1.24,4-2.43,6-3.53q-3.13-.18-6.32-.18a111.43,111.43,0,0,0-12.49.7c3.21.9,6.52,2,9.87,3.31A2,2,0,0,1,52.1,49.35Z"/><path class="cls-1" d="M40.84,58.84c2.41-2,5-3.92,7.67-5.79L50.1,52a2,2,0,0,1-.08-.54h0a104.52,104.52,0,0,0-10.92-3.6,4.16,4.16,0,0,1-2.34,2.33c.86,2.69,1.84,5.42,2.93,8.16A2.21,2.21,0,0,1,40.84,58.84Z"/><path class="cls-1" d="M40,62.61a2.26,2.26,0,0,1-.58.09,2.2,2.2,0,0,1-.77-.15A75.78,75.78,0,0,0,28.45,73.3a33.92,33.92,0,0,0-3.69,5.9,42.76,42.76,0,0,0,4.59.43,80.1,80.1,0,0,0,16.36-1.24,3.46,3.46,0,0,1,1.21-2.11A123.7,123.7,0,0,1,40.6,64.06Z"/></svg>