<svg id="Camada_1" data-name="Camada 1" xmlns="http://www.w3.org/2000/svg" viewBox="0 0 335 88"><title>ojs</title><path d="M118.3,52.17c0,5.54-3.58,8.85-9.58,8.85s-9.58-3.22-9.58-8.85V24.94H90.32v27c0,10.29,6.71,16.19,18.4,16.19s18.39-6,18.39-16.49V24.94H118.3Z"/><path d="M151.24,35A13.59,13.59,0,0,0,141,39.15V35.63h-8.46V67.52h8.53V48.81c0-4.35,3.3-7.28,8.2-7.28,4.07,0,6,2,6,6.26V67.52h8.54V46.83C163.89,39.66,158.92,35,151.24,35Z"/><rect x="169.7" y="24.94" width="8.54" height="7.34"/><rect x="169.7" y="35.63" width="8.54" height="31.9"/><path d="M222.07,37.29c0-7.39-6.48-12.35-16.11-12.35H184.24V67.58H193V49.69H204.3l10.25,17.89h9.83l-11.58-19C218.79,46.76,222.07,42.76,222.07,37.29Zm-29-5.61h12.49c5.06,0,7.85,2.08,7.85,5.85,0,3.59-2.41,5.55-7.16,5.72H193.05Z"/><path d="M240.1,35c-11.75,0-17,8.41-17,16.73,0,9.8,7.2,16.37,17.91,16.37a20.64,20.64,0,0,0,14-5l.52-.44-5.63-4.29-.44.34a12.86,12.86,0,0,1-8.28,2.79c-5.62,0-8.8-2.56-9.45-7.61h24.17l.12-.43a10.44,10.44,0,0,0,.23-2.49C256.21,43.65,252,35,240.1,35ZM240,41.53c6,0,7.43,4.11,7.73,6.47h-16C232.49,43.82,235.39,41.53,240,41.53Z"/><path d="M286.73,38.78a16.27,16.27,0,0,0-11-3.76c-10,0-16,6.19-16,16.55s6.18,16.61,16.11,16.61a16.4,16.4,0,0,0,11.11-3.79v3.13h8.4V24.94h-8.54Zm-8.89,22.84c-6.36,0-9.58-3.4-9.58-10.1,0-4.51,1.66-9.87,9.58-9.87,5.66,0,9.17,3.78,9.17,9.87C287,57.84,283.58,61.62,277.84,61.62Z"/><path d="M314.89,35c-11.75,0-17,8.41-17,16.73,0,9.8,7.2,16.37,17.91,16.37a20.64,20.64,0,0,0,14-5l.52-.44-5.63-4.29-.44.34a12.86,12.86,0,0,1-8.28,2.79c-5.62,0-8.8-2.56-9.45-7.61h24.17l.12-.43A10.44,10.44,0,0,0,331,51C331,43.65,326.78,35,314.89,35Zm-.14,6.51c6,0,7.43,4.11,7.73,6.47h-16C307.28,43.82,310.18,41.53,314.75,41.53Z"/><path d="M64.43,62.57a6.8,6.8,0,1,0,6.8,6.79A6.8,6.8,0,0,0,64.43,62.57Z"/><path d="M13.8,29.77A6.8,6.8,0,1,0,7,23,6.81,6.81,0,0,0,13.8,29.77Z"/><path d="M51.78,24.17c-9.93,0-18,8.48-18,18.94V49h0a7.33,7.33,0,0,1-14.65,0V35.27H8.46V49c0,10.46,8.05,18.94,18,18.94s18-8.48,18-18.94V43.11h0a7.34,7.34,0,0,1,14.67,0h0V56.82H69.77V43.11C69.77,32.65,61.72,24.17,51.78,24.17Z"/></svg>